<?xml version="1.0" encoding="UTF-8" standalone="no"?>
<!-- Created with Inkscape (http://www.inkscape.org/) -->

<svg
   xmlns:dc="http://purl.org/dc/elements/1.1/"
   xmlns:cc="http://creativecommons.org/ns#"
   xmlns:rdf="http://www.w3.org/1999/02/22-rdf-syntax-ns#"
   xmlns:svg="http://www.w3.org/2000/svg"
   xmlns="http://www.w3.org/2000/svg"
   xmlns:xlink="http://www.w3.org/1999/xlink"
   xmlns:sodipodi="http://sodipodi.sourceforge.net/DTD/sodipodi-0.dtd"
   xmlns:inkscape="http://www.inkscape.org/namespaces/inkscape"
   width="500"
   height="500"
   viewBox="0 0 132.29166 132.29167"
   version="1.1"
   id="svg8"
   inkscape:version="0.92.2 (5c3e80d, 2017-08-06)"
   sodipodi:docname="st_cache_logo.svg"
   inkscape:export-filename="D:\st_cache_16.png"
   inkscape:export-xdpi="3.0719998"
   inkscape:export-ydpi="3.0719998">
  <defs
     id="defs2">
    <circle
       style="color:#000000;clip-rule:nonzero;display:inline;overflow:visible;visibility:visible;opacity:1;isolation:auto;mix-blend-mode:normal;color-interpolation:sRGB;color-interpolation-filters:linearRGB;solid-color:#000000;solid-opacity:1;vector-effect:none;fill:none;fill-opacity:1;fill-rule:nonzero;stroke:#000000;stroke-width:0.86000848px;stroke-linecap:butt;stroke-linejoin:miter;stroke-miterlimit:4;stroke-dasharray:none;stroke-dashoffset:0;stroke-opacity:1;marker:none;color-rendering:auto;image-rendering:auto;shape-rendering:auto;text-rendering:auto;enable-background:accumulate"
       id="path36-3"
       cx="147.27147"
       cy="189.4819"
       r="54.714611"
       transform="rotate(21.794178)" />
  </defs>
  <sodipodi:namedview
     id="base"
     pagecolor="#ffffff"
     bordercolor="#666666"
     borderopacity="1.0"
     inkscape:pageopacity="0"
     inkscape:pageshadow="2"
     inkscape:zoom="0.37476659"
     inkscape:cx="-94.485286"
     inkscape:cy="198.02371"
     inkscape:document-units="mm"
     inkscape:current-layer="layer1"
     showgrid="false"
     units="px"
     inkscape:window-width="1366"
     inkscape:window-height="705"
     inkscape:window-x="-8"
     inkscape:window-y="-8"
     inkscape:window-maximized="1" />
  <metadata
     id="metadata5">
    <rdf:RDF>
      <cc:Work
         rdf:about="">
        <dc:format>image/svg+xml</dc:format>
        <dc:type
           rdf:resource="http://purl.org/dc/dcmitype/StillImage" />
        <dc:title></dc:title>
      </cc:Work>
    </rdf:RDF>
  </metadata>
  <g
     inkscape:label="Livello 1"
     inkscape:groupmode="layer"
     id="layer1"
     transform="translate(0,-164.70832)">
    <flowRoot
       xml:space="preserve"
       id="flowRoot908"
       style="fill:black;stroke:none;stroke-opacity:1;stroke-width:1px;stroke-linejoin:miter;stroke-linecap:butt;fill-opacity:1;font-family:Roboto;font-style:normal;font-weight:bold;font-size:20px;line-height:25px;letter-spacing:0px;word-spacing:0px;-inkscape-font-specification:'Roboto Bold';font-stretch:normal;font-variant:normal"><flowRegion
         id="flowRegion910"><rect
           id="rect912"
           width="155.02625"
           height="24.684889"
           x="169.90332"
           y="237.44016" /></flowRegion><flowPara
         id="flowPara914" /></flowRoot>    <circle
       style="color:#000000;clip-rule:nonzero;display:inline;overflow:visible;visibility:visible;opacity:1;isolation:auto;mix-blend-mode:normal;color-interpolation:sRGB;color-interpolation-filters:linearRGB;solid-color:#000000;solid-opacity:1;vector-effect:none;fill:#ffffff;fill-opacity:1;fill-rule:nonzero;stroke:none;stroke-width:0.90716392px;stroke-linecap:butt;stroke-linejoin:miter;stroke-miterlimit:4;stroke-dasharray:none;stroke-dashoffset:0;stroke-opacity:1;marker:none;color-rendering:auto;image-rendering:auto;shape-rendering:auto;text-rendering:auto;enable-background:accumulate"
       id="path50"
       cx="66.145836"
       cy="230.85416"
       r="66.145836" />
    <g
       id="g290">
      <path
         inkscape:connector-curvature="0"
         id="path1333"
         d="m 66.438914,164.70928 c -0.39475,-0.002 -0.789482,-9.5e-4 -1.184591,0.004 -0.0056,0.0734 -0.05507,0.15501 -0.15983,0.24987 -0.403745,0.36562 -0.778299,0.62289 -1.12276,0.80619 -0.09714,-0.31388 -0.08966,-0.66947 -0.0717,-1.02646 -0.899831,0.0296 -1.797125,0.0813 -2.697393,0.14794 0.432268,0.97598 1.349732,1.63408 2.769086,0.87984 0.07281,0.23447 0.206944,0.43944 0.437396,0.61024 -0.352219,0.0979 -0.704988,0.19855 -1.057646,0.29457 -0.05252,-0.0386 -0.110861,-0.0744 -0.162461,-0.11305 -0.800621,-0.10305 -2.682922,-1.0594 -2.399435,-0.3038 0.119529,0.3186 0.255915,0.62954 0.386753,0.94295 -0.465036,0.0998 -0.929362,0.20613 -1.396384,0.29591 -0.38556,0.0743 -0.794013,0.041 -1.163543,0.17361 -0.501031,0.17987 -1.350031,0.23339 -1.917307,0.42609 16.354544,-2.46313 33.086086,1.59942 46.466671,11.19261 0.0104,0.007 0.0241,0.0106 0.0342,0.0171 1.45058,0.73181 2.87951,1.54491 4.2319,2.31927 -0.23757,0.12737 -0.47972,0.26056 -0.73074,0.39783 2.22526,1.84767 4.34496,3.85671 6.32614,6.03063 0.10461,-0.37428 0.21818,-0.81498 0.35057,-1.30791 0.529,-0.11165 1.07372,-0.20347 1.58582,-0.36825 0.0402,-0.0128 0.0798,-0.0305 0.11964,-0.0447 -3.83707,-4.22228 -8.15725,-7.86723 -12.81804,-10.89733 0.0754,0.0918 0.14555,0.1824 0.21903,0.2742 -0.43796,-0.21154 -0.71892,-0.34098 -1.31088,-0.62864 -0.11768,-0.0572 -0.23606,-0.11565 -0.35452,-0.17163 0.0828,-0.0589 0.18926,-0.1205 0.31374,-0.19332 C 90.718434,168.2451 78.676075,164.77721 66.438834,164.7094 Z m -5.451347,0.20845 c -4.31292,0.33365 -8.621154,1.0949 -12.866048,2.29954 0.15082,0.19067 0.294763,0.36744 0.437399,0.52542 -0.431629,0.35866 -0.844016,0.73664 -1.212872,1.16126 -0.0051,0.006 -0.0078,0.0136 -0.01314,0.0198 -0.69629,-0.34549 -1.368678,-0.639 -2.003475,-0.86011 -1.686239,0.56051 -3.359017,1.19413 -5.015923,1.89907 -0.0454,0.43091 -0.03755,0.92854 0.02368,1.49271 -0.661841,0.41255 -1.268926,0.79585 -1.800237,1.34276 -0.237597,-0.62615 -0.454792,-1.20248 -0.669579,-1.72746 -1.615622,0.76599 -3.210675,1.59794 -4.786372,2.50734 -14.791878,8.53819 -25.046638,21.93207 -29.8949253,37.01096 0.1146853,-0.0185 0.2293893,-0.0305 0.3420253,-0.0394 0.836956,0.0161 1.710799,-0.14516 2.554659,-0.16308 4.779,-14.03917 14.480084,-26.47181 28.345952,-34.47601 7.064609,-4.07785 14.578861,-6.64135 22.181612,-7.79751 1.661049,-2.62657 -0.357548,-0.0579 3.889876,-2.43961 0.307755,-0.17281 0.400768,-0.46568 0.487383,-0.75556 z m 4.910028,3.52395 c -3.207096,0.0106 -6.426862,0.2673 -9.629967,0.77989 h -6.59e-4 c 0.06658,0.21534 0.138954,0.42996 0.213109,0.64245 13.731164,-2.17384 27.758524,0.40421 39.758394,7.08405 0.74111,0.16119 1.48748,0.32061 2.222498,0.50305 -9.81479,-5.92318 -21.109462,-9.04467 -32.563375,-9.00944 z m -9.985147,0.83973 c -7.187863,1.19312 -14.286715,3.666 -20.968083,7.52265 v -6.6e-4 c -27.425284,15.83062 -38.2833887,49.34028 -26.4977036,77.82664 0.219579,-0.0371 0.441823,-0.0887 0.666948,-0.1302 C -2.6303159,226.2926 8.105386,193.07317 35.281128,177.38733 c 6.597856,-3.80851 13.603464,-6.25703 20.699724,-7.44046 -0.0161,-0.22263 -0.03743,-0.44497 -0.0684,-0.66546 z m 24.483701,7.49175 c -0.183771,0.005 -0.369351,0.0458 -0.546579,0.12686 -0.708922,0.32449 -1.018521,1.16138 -0.693916,1.87014 0.324596,0.70873 1.16169,1.01826 1.870612,0.69373 0.70892,-0.32452 1.023782,-1.15221 0.699177,-1.86092 -0.243445,-0.53154 -0.777976,-0.84391 -1.329294,-0.82986 z m 20.812861,2.43566 c -0.18848,0.14237 -0.38323,0.28217 -0.56303,0.43465 0.28313,0.19039 0.5656,0.38532 0.84585,0.58064 0.21365,-0.11987 0.43009,-0.23887 0.63801,-0.36825 -0.30669,-0.21592 -0.61067,-0.437 -0.92083,-0.64704 z m -62.23336,2.88543 c -0.288484,0.006 -0.567409,0.10094 -0.797838,0.26566 -0.221191,0.15813 -0.396662,0.37832 -0.498567,0.65231 -0.271747,0.73063 0.09927,1.54522 0.830066,1.81689 0.730775,0.27167 1.54557,-0.0999 1.817337,-0.83051 0.271744,-0.73059 -0.09927,-1.54523 -0.83007,-1.81689 -0.17128,-0.0637 -0.347838,-0.0914 -0.520928,-0.0874 z m 66.74019,0.48134 c -0.0551,0.0315 -0.10873,0.0628 -0.16378,0.0947 -0.15279,0.0884 -0.2997,0.18171 -0.45055,0.27159 2.53593,2.05973 4.92324,4.33791 7.1378,6.82629 0.0481,-0.235 0.12578,-0.61965 0.16772,-0.82526 -2.08751,-2.30695 -4.32611,-4.43106 -6.69119,-6.3673 z m -39.830743,1.16523 c -7.921043,0.0372 -15.939,2.07225 -23.289247,6.31468 -2.868781,1.6559 -5.490035,3.57185 -7.86657,5.69461 0.35175,-0.0274 0.73796,-0.0587 1.089876,-0.0698 2.168853,-1.86472 4.545304,-3.55958 7.113456,-5.04164 9.054539,-5.22625 19.133407,-7.06729 28.769536,-5.90238 -0.128036,-0.23862 -0.252033,-0.47329 -0.35847,-0.70492 -1.808224,-0.20167 -3.63065,-0.29923 -5.458581,-0.29065 z m 5.742724,0.32155 v 6.6e-4 c 0.04874,0.22773 0.0934,0.45621 0.140101,0.68453 0.01465,0.001 0.02812,0.0106 0.04275,0.0118 -0.04003,-0.23374 -0.06118,-0.46606 -0.06972,-0.6885 -0.0377,-0.005 -0.07543,-0.002 -0.113133,-0.007 z m 1.037256,0.13218 c -0.06579,0.21601 -0.13221,0.4314 -0.197323,0.64772 11.311861,1.55775 21.949308,7.26212 29.518046,16.45646 -0.5135,-0.85899 -0.922,-1.5397 -1.17999,-1.9793 0.0591,-0.0737 0.11536,-0.14837 0.17562,-0.22291 -0.0943,-0.10353 -0.19233,-0.2052 -0.28743,-0.30776 -0.034,0.0453 -0.0713,0.0883 -0.10524,0.13349 -0.1077,-0.19483 -0.20323,-0.38001 -0.27756,-0.54447 -7.447694,-7.84074 -17.26632,-12.729 -27.646118,-14.18323 z m -6.963488,1.27175 c -7.569215,0.068 -15.223599,2.03154 -22.241469,6.08257 v 0.001 c -4.025662,2.32361 -7.566839,5.17453 -10.575141,8.41169 0.0903,0.35754 0.164206,0.68586 0.219688,0.99095 0.728956,0.27916 1.607147,0.84947 1.156962,0.65694 -0.38697,-0.16553 -0.759653,-0.31131 -1.126051,-0.45572 0.334712,2.05153 -0.171472,2.89896 -1.444396,3.34838 -0.168218,-0.25431 -0.304274,-0.51761 -0.374253,-0.8167 -0.137797,-0.59065 -0.25,-1.09862 -0.333473,-1.54465 -7.88631,9.66569 -11.452102,22.23287 -9.858204,34.56676 0.235469,0.0198 0.444157,0.0191 0.599201,0.006 0.137248,-0.0118 0.288,-0.0396 0.456472,-0.0934 0.0044,0.10317 0.0094,0.26645 0.01247,0.35772 0.552388,-0.0145 1.113507,-0.0254 1.67526,-0.044 -0.940949,-6.53526 -0.329394,-13.15508 1.683156,-19.3281 -0.0025,-0.002 -0.0029,-0.006 -0.0052,-0.009 -0.124315,-0.14381 -0.194491,-0.33302 -0.244023,-0.52737 0.124507,-0.0874 0.259217,-0.18195 0.388722,-0.27355 0.04744,-0.0164 0.096,-0.0297 0.14339,-0.046 2.046639,-5.85788 5.370996,-11.2816 9.851624,-15.83112 -0.11691,-0.14197 -0.237764,-0.28352 -0.374255,-0.4156 -0.09851,-0.1789 -0.457572,-0.82993 -0.745875,-1.35525 1.007795,0.21623 2.050714,0.51355 2.649377,-0.16833 0.342891,-0.39059 0.648382,-0.76914 0.945171,-1.14091 0.117157,0.16234 0.224641,0.32146 0.325579,0.48003 1.93386,-1.63899 4.040803,-3.13387 6.314961,-4.44653 8.042904,-4.64244 16.961019,-6.37045 25.539375,-5.52033 0.204055,-0.33006 0.262335,-0.60947 0.192716,-0.94954 0.229858,-0.0186 0.502013,-0.0415 0.778764,-0.0612 0.09968,-0.13472 0.204365,-0.26574 0.306508,-0.3952 0.004,0.0924 0.02966,0.16716 0.0934,0.22489 -0.01668,0.0468 -0.02122,0.0974 -0.03815,0.14401 0.134049,-0.009 0.248814,-0.0198 0.384779,-0.0276 0.07186,0.006 0.153664,0.0106 0.245338,0.004 0.01454,0.0638 0.03443,0.12712 0.04933,0.19069 0.06707,-0.0733 0.136014,-0.14282 0.203899,-0.21503 0.0126,-3.3e-4 0.02572,0.002 0.03815,0.002 -0.0014,-0.004 0.0048,-0.0106 0.0033,-0.0145 0.207334,-0.0327 0.450534,-0.0784 0.736008,-0.15715 -0.05159,0.0506 -0.10413,0.10012 -0.155883,0.15058 0.08695,-0.002 0.181087,-0.005 0.263094,-0.006 -0.171431,0.0804 -0.340224,0.16371 -0.510403,0.2466 0.08245,-0.0799 0.165147,-0.15853 0.247309,-0.23871 -0.189541,0.004 -0.378831,0.0118 -0.583415,0.0204 0.04528,0.11176 0.09359,0.21725 0.136809,0.3209 -0.09701,0.0482 -0.196329,0.0952 -0.292694,0.14467 -0.0076,0.004 -0.019,0.0118 -0.02697,0.0158 0,0 -6.57e-4,0 -6.57e-4,0 -0.02146,-0.0887 -0.03709,-0.17997 -0.05788,-0.26896 -0.188819,0.20649 -0.378559,0.41328 -0.561051,0.62799 0.234506,-0.14936 0.455014,-0.27129 0.61959,-0.35772 0.01534,0.063 0.03294,0.1265 0.04867,0.18938 -0.201897,0.19473 -0.410632,0.38701 -0.61104,0.58326 6.293758,0.85025 12.360266,3.10158 17.719508,6.6106 -0.0055,-0.15405 -0.0022,-0.0604 -0.0073,-0.20187 0.340668,0.0179 0.727922,0.15584 1.172749,0.45242 0.446681,0.29783 0.73131,0.75388 0.975429,1.24741 4.511278,3.36712 8.432726,7.67891 11.428226,12.86612 0.10712,0.18547 0.20777,0.3745 0.31177,0.5609 0.0278,-0.0924 0.0508,-0.1862 0.0822,-0.27815 0.99445,0.04 1.92262,0.0511 2.81709,0.0383 0.0564,0.4369 0.1085,0.83449 0.15655,1.19744 -0.0934,0.13236 -0.19116,0.27047 -0.28678,0.40834 -0.89047,-0.30886 -1.70618,-0.56576 -2.46126,-0.79039 2.12214,3.94014 3.56964,8.06532 4.36608,12.25259 0.0261,-0.16465 0.0605,-0.3288 0.0927,-0.49055 0.006,0.002 0.0131,0.0106 0.0198,0.0127 0.93168,0.36696 1.83631,0.7769 2.74541,1.19745 -0.79901,-4.96399 -2.44224,-9.87374 -4.98304,-14.52058 -0.78423,-0.0232 -1.52669,-0.0463 -2.15542,-0.092 0.0921,-0.22629 0.16946,-0.45925 0.26046,-0.6852 0.26347,-0.37611 0.5383,-0.73334 0.82152,-1.08171 -8.584358,-14.09591 -23.725406,-21.90229 -39.224271,-21.76302 z m 6.091327,2.6441 c -0.17417,0.11094 -0.342488,0.23092 -0.526192,0.3518 0.07222,0.009 0.146208,0.0106 0.218369,0.0198 0.101483,-0.12419 0.204295,-0.24972 0.307823,-0.37154 z m 43.302964,-1.73796 c 0.3475,1.2828 0.33358,2.28252 0.49657,4.35182 -0.0451,0.0557 -0.0991,0.10612 -0.15062,0.1598 2.06835,2.55694 3.96554,5.31008 5.6625,8.24862 6.14928,10.64846 8.85219,22.33796 8.473,33.77898 0.14411,0.0598 0.28878,0.12127 0.41766,0.19661 1.14443,0.0994 1.09446,0.0435 1.17604,0.26894 -0.18136,0.286 -0.28197,0.68151 -0.19667,1.04686 -0.32079,0.13395 -0.63045,0.27871 -0.93531,0.44256 0.28143,-0.0903 0.59709,-0.21218 0.95439,-0.36825 -0.007,-0.0237 -0.0127,-0.0482 -0.0185,-0.0722 0.24221,-0.10118 0.48886,-0.19066 0.73733,-0.28012 0.007,0.007 0.0171,0.0135 0.0249,0.0218 -0.256,0.11611 -0.53029,0.23944 -0.7439,0.33272 0.10908,0.3513 0.40232,0.66698 0.98266,0.81738 0.0575,-0.0478 0.11285,-0.0988 0.17036,-0.14665 0.83695,-12.61837 -1.92278,-25.61297 -8.71834,-37.37854 -2.41296,-4.17824 -5.21509,-7.98683 -8.33225,-11.4201 z m 14.94317,48.49419 c -0.19641,0.063 -0.38013,0.11258 -0.5617,0.14268 -1.11648,16.81742 -8.90124,32.92807 -22.27173,44.23575 0.0848,0.11529 0.16625,0.23841 0.23942,0.37216 -0.10744,-0.0965 -0.22227,-0.19565 -0.33808,-0.29063 -0.11332,0.0956 -0.23182,0.18997 -0.34597,0.28472 0.33152,0.37951 0.6884,0.73607 1.07212,1.05738 0.10567,0.52166 0.0334,0.92547 -0.34861,0.86931 -0.58243,-0.0857 -1.16602,-0.19652 -1.73971,-0.31957 0.0597,-0.28877 0.0986,-0.58579 0.13549,-0.88049 -2.48912,1.99231 -5.15673,3.81487 -8.003378,5.45787 -7.553591,4.35998 -15.628547,6.99455 -23.767429,8.0211 0.10586,1.03235 0.187234,1.79398 0.182195,2.16671 -0.08763,0.0808 -0.180906,0.14851 -0.269017,0.22819 -0.228206,-0.23613 -0.694724,-0.93462 -1.315478,-1.87738 0.209765,-0.13705 0.428096,-0.27263 0.653795,-0.42546 -17.370223,1.97984 -34.965943,-3.33356 -48.358997,-14.74151 -0.578121,1.61761 -0.879854,2.3435 -0.983981,2.69408 20.688008,17.06759 50.625491,20.46588 75.21254,6.2759 1.7622,-1.01718 3.4481,-2.11054 5.07972,-3.26026 -0.0344,-0.11295 -0.0644,-0.23037 -0.10064,-0.3426 0.14801,-0.35115 0.34185,-0.69355 0.53738,-1.02714 0.54262,0.0239 1.23489,-0.43889 1.6325,-0.14006 7.71087,-5.89187 13.82538,-13.24964 18.17468,-21.44944 -0.0453,0.005 -0.0923,0.005 -0.14076,0.009 0.16127,-1.10693 0.31549,-2.21622 0.47488,-3.32339 0.24497,0.392 0.50326,0.86136 0.66498,1.34146 0.29032,-0.59447 0.57241,-1.19753 0.84454,-1.79978 -0.45907,-0.23423 -0.89471,-0.50452 -1.32995,-0.78712 0.0161,-0.11388 0.0295,-0.22865 0.0454,-0.34259 0.4751,0.22884 0.99788,0.5546 1.41347,0.84893 2.37896,-5.33099 4.04512,-10.9521 4.95673,-16.7103 -0.29443,-0.37378 -0.69621,-0.8083 -1.19248,-1.32897 0.46281,-0.16096 0.94073,-0.27388 1.42796,-0.32549 0.0339,-0.25501 0.0737,-0.50995 0.10461,-0.76542 -0.31674,-0.25533 -0.6215,-0.51405 -0.92347,-0.77922 -0.19688,-0.17286 0.11461,0.50745 0.17298,0.76278 -0.34727,0.19088 -0.66239,0.45753 -1.04054,0.57604 -0.0645,0.0202 -0.13809,0.0291 -0.20456,0.0454 -0.15427,-0.15823 -0.27927,-0.2923 -0.45252,-0.46752 -0.007,-0.007 -0.0172,-0.0146 -0.025,-0.0224 0.0566,-0.81066 0.3793,-1.64831 0.28152,-2.45801 -0.0547,-0.45328 -0.0987,-0.82506 -0.15129,-1.18824 0.18181,-0.11694 0.36994,-0.23336 0.55975,-0.33536 z M 71.674522,187.31606 c -0.133431,0.009 -0.233378,0.0173 -0.361756,0.0264 -0.257573,0.34806 -0.512882,0.69896 -0.75377,1.03043 0.222632,0.0233 0.442847,0.0515 0.664972,0.0782 0.163014,-0.3722 0.311635,-0.75255 0.450554,-1.13497 z m 1.251677,0.17557 c -0.05617,0.0542 -0.115521,0.10494 -0.171667,0.15914 -0.0088,-0.0213 -0.01288,-0.0378 -0.0217,-0.0592 0.06472,-0.032 0.128525,-0.0683 0.193375,-0.10001 z m 41.669131,1.11195 c -0.0267,0.006 -0.0599,0.0475 -0.0874,0.12293 -0.0939,0.25753 -0.15986,0.51556 -0.21705,0.78187 0.22449,0.26196 0.44488,0.52803 0.66563,0.79435 -0.0659,-0.65519 -0.19752,-1.73866 -0.3611,-1.69918 z m -2.17975,0.37154 c -0.0583,0.34859 -0.0911,0.63633 -0.11773,0.8693 0.002,0.002 0.002,0.006 0.005,0.009 0.0453,0.0512 0.091,0.10071 0.13615,0.1519 0.0566,-0.15163 0.14095,-0.45167 0.2335,-0.75425 -0.0839,-0.094 -0.1727,-0.18272 -0.25718,-0.27617 z m 1.69368,1.93919 c -0.0118,0.1562 -0.0255,0.31125 -0.0337,0.46819 0.17688,0.0448 0.33866,0.0863 0.51236,0.12955 -0.16069,-0.19825 -0.31601,-0.40187 -0.47883,-0.59774 z m -0.0337,0.46819 c -0.191,-0.0484 -0.39027,-0.0988 -0.58408,-0.14861 0.13354,0.1599 0.26974,0.32377 0.40187,0.48529 0.052,0.0232 0.10767,0.0426 0.15918,0.0658 0.006,-0.1345 0.0161,-0.26812 0.0231,-0.40244 z m -0.0231,0.40244 c -10e-4,0.041 -3.6e-4,0.0813 -0.002,0.12228 0.0332,0.041 0.0643,0.0852 0.0974,0.12622 0.0461,-0.0468 0.0885,-0.0945 0.13813,-0.14006 -0.0778,-0.0359 -0.1538,-0.073 -0.23284,-0.10858 z m 0.23283,0.10858 c 0.23903,0.11047 0.47603,0.22125 0.70379,0.3347 -0.0169,0.26337 -0.0435,0.52842 -0.0658,0.79107 1.69512,2.18975 3.27205,4.5081 4.69561,6.97293 13.27957,22.99513 10.07472,50.9764 -5.94071,70.28489 0.37626,0.038 0.545,0.0884 0.22494,0.13745 -0.11485,0.0175 -0.26415,0.0462 -0.40582,0.0763 -4.51599,5.39359 -10.03103,10.10257 -16.478358,13.8242 -6.11123,3.52738 -12.577806,5.88807 -19.136934,7.15835 0.01482,0.0727 0.03301,0.13718 0.03091,0.20056 -0.02846,0.0704 -0.161973,0.39003 -0.172987,0.41626 -0.04766,0.0481 -0.106684,0.086 -0.171668,0.12292 6.783411,-1.26147 13.472465,-3.66965 19.787439,-7.31486 29.848978,-17.22885 40.071228,-55.39367 22.836728,-85.23686 -1.66138,-2.87687 -3.51487,-5.57177 -5.53948,-8.07698 -0.12537,0.10258 -0.25278,0.20331 -0.36768,0.30905 z m -78.90903,4.17691 c -0.455674,0.13044 -0.909398,0.2563 -1.370728,0.3413 -0.0049,0.005 -0.01291,0.006 -0.01776,0.0106 v 6.6e-4 c -1.113505,1.03809 -2.171341,2.12142 -3.167015,3.24906 0.177316,-0.0445 0.352511,-0.0892 0.529479,-0.13546 0.09512,0.0648 0.184007,0.14947 0.274277,0.24266 0.02668,-0.0297 0.05739,-0.0553 0.0842,-0.0848 -0.0408,-0.0692 -0.07503,-0.13154 -0.126287,-0.21896 0.137585,-0.0362 0.275502,-0.0681 0.413062,-0.10458 1.062048,-1.15071 2.190596,-2.24965 3.380782,-3.29972 z m -4.555505,3.60153 c -8.989988,10.18145 -13.129817,23.81402 -11.416389,37.19246 0.232355,0.0355 0.464401,0.0506 0.697206,0.0711 -0.0099,-0.0748 -0.02274,-0.14942 -0.03223,-0.22424 -0.07694,-0.062 -0.164939,-0.13207 -0.247308,-0.19727 0.07179,0.0137 0.149358,0.031 0.219027,0.0434 -1.605381,-13.0022 2.39531,-26.2148 11.04937,-36.16598 -0.119822,-0.0425 -0.221269,-0.08 -0.337423,-0.12101 -0.0027,-0.27018 0.02464,-0.46613 0.06775,-0.5984 z m 1.322057,1.09291 c -0.01556,0.0175 -0.02326,0.0417 -0.03881,0.0592 0.05519,-0.002 0.109414,-0.007 0.164434,-0.0106 -0.04232,-0.0158 -0.08368,-0.0339 -0.125626,-0.0494 z m 0.125626,0.0494 c 0.283589,0.10588 0.565832,0.22168 0.864272,0.33929 -0.01036,-0.0635 -0.01892,-0.13485 -0.03091,-0.20056 -0.226597,-0.0868 -0.441063,-0.14419 -0.593282,-0.144 -0.07995,9e-5 -0.159841,0.002 -0.240075,0.005 z m 81.211782,1.49729 c -0.28848,0.006 -0.56806,0.10165 -0.79849,0.26632 -0.22119,0.1581 -0.396,0.37767 -0.49792,0.65165 -0.27174,0.73062 0.0993,1.54522 0.83008,1.81689 0.73077,0.27168 1.5403,-0.10859 1.81207,-0.83907 0.27173,-0.73064 -0.094,-1.53599 -0.8248,-1.80768 -0.17129,-0.0637 -0.34785,-0.092 -0.52094,-0.088 z m -7.69161,3.05444 v 0.002 c -0.19616,0.11936 -0.38746,0.2388 -0.58736,0.35115 0.14616,0.22733 0.29007,0.45515 0.43279,0.68585 0.0812,-0.0896 0.16542,-0.17701 0.24797,-0.265 0.0362,0.2946 0.0639,0.52782 0.10132,0.82854 0.1332,0.22232 0.26846,0.44348 0.39858,0.66876 8.59117,14.8768 8.01633,32.52989 0.0244,46.41821 0.1277,0.27312 0.19267,0.42067 0.34138,0.73781 8.32612,-14.15163 9.01292,-32.26368 0.2177,-47.49467 -0.38002,-0.65805 -0.77022,-1.30062 -1.17669,-1.93328 z M 4.630217,212.14757 c -0.03606,-6.3e-4 -0.07235,0.005 -0.108531,0.0191 -0.417787,0.15862 -0.796295,0.35705 -1.148413,0.57802 -0.3798359,0.23836 -0.730173,0.50981 -1.0550147,0.80289 -1.0505321,3.8745 -1.74869147,7.84519 -2.08437687,11.8574 0.82277897,-0.004 1.65949777,0.12202 2.48362537,0.13413 0.066933,-0.009 0.1337018,-0.0216 0.2006103,-0.0309 0.3748169,-4.39836 1.2021059,-8.74098 2.4711279,-12.95553 -0.25652,-0.0839 -0.506652,-0.40074 -0.759031,-0.40507 z m 8.799901,3.00839 c -0.183281,0.005 -0.368696,0.0471 -0.545925,0.12823 -0.08859,0.0406 -0.170261,0.0867 -0.245995,0.14204 -0.530099,0.38741 -0.731945,1.10798 -0.44792,1.7281 0.324592,0.70873 1.161692,1.01827 1.870612,0.69376 0.708885,-0.32452 1.018521,-1.16144 0.693914,-1.87015 -0.243449,-0.53156 -0.77485,-0.83859 -1.324686,-0.82198 z m 97.600022,8.75825 c -0.62472,0.51624 -1.59133,0.84036 -2.56125,1.16259 1.20418,8.80664 -0.3825,17.74472 -4.44039,25.53628 0.15702,0.27458 0.32868,0.59207 0.46436,0.82525 -0.0498,0.11376 -0.085,0.19898 -0.11643,0.26171 0.0421,-0.0555 0.10478,-0.10599 0.17431,-0.16176 0.21515,0.3692 0.40735,0.67745 0.57091,0.94625 -0.14402,-0.0592 -0.29302,-0.11729 -0.44331,-0.15715 -0.47275,-0.12521 -0.94834,-0.21888 -1.42796,-0.30579 -3.62626,6.36492 -8.932688,11.88695 -15.741023,15.81667 -0.298093,0.17206 -0.603307,0.33308 -0.903733,0.49713 0.0368,0.0389 0.07902,0.0772 0.115097,0.11564 0.05134,0.007 0.105978,0.0106 0.157201,0.0185 0.132469,0.0214 0.227762,0.23078 0.280853,0.44518 0.401253,0.4501 0.745387,0.87636 1.038573,1.27174 -0.877468,0.37537 -1.746293,0.77624 -2.606623,1.18891 -0.236674,-0.0739 -0.495173,-0.15407 -0.725486,-0.22489 -0.15515,-0.39823 -0.2692,-0.82888 -0.445291,-1.21322 0.11478,-0.16206 0.226213,-0.3918 0.333477,-0.64246 -4.205495,2.04061 -8.598749,3.3301 -13.027853,3.91191 0.06754,0.12771 0.137545,0.2548 0.211794,0.38797 -0.714816,0.85288 -1.446285,1.69142 -2.192248,2.51654 0.169055,-0.0133 0.33744,-0.0342 0.50646,-0.0494 0.626414,-0.71873 1.243507,-1.44823 1.848905,-2.18511 0.30051,0.51992 0.642642,1.07639 1.03857,1.6722 -0.06591,0.005 -0.140264,10e-4 -0.201923,0.007 -0.20231,0.0196 -0.02031,0.0278 0.242705,0.0421 0.008,0.0118 0.0126,0.0245 0.02105,0.0361 -0.240735,0.0645 -0.526518,0.12076 -0.930701,0.19727 5.157185,-0.69725 10.266335,-2.29247 15.106964,-4.85619 0.0062,-0.004 0.01221,-0.007 0.01842,-0.0106 0.355318,-0.25889 0.64154,-0.45168 0.908997,-0.63456 0.02442,0.0339 0.04866,0.071 0.07235,0.10459 0.157824,-0.0892 0.316813,-0.18269 0.474233,-0.27355 0.745895,-0.43054 1.480261,-0.87244 2.192244,-1.33817 0.278357,-0.33766 0.536965,-0.69024 0.756399,-1.06857 0.06216,0.0248 0.118969,0.0534 0.178906,0.079 0.03098,0.10024 0.06261,0.19271 0.09275,0.2867 1.400665,-0.97165 2.731875,-2.00526 3.991165,-3.10573 -0.16479,-0.21356 -0.33924,-0.42325 -0.5183,-0.62402 0.10152,-0.042 0.20214,-0.0832 0.30322,-0.12623 0.51225,-0.21786 0.98128,-0.54995 1.51872,-0.69507 0.0756,-0.0205 0.14278,0.0179 0.21574,0.0579 3.290068,-3.15158 6.032118,-6.74465 8.193458,-10.62116 -0.0485,0.006 -0.0939,0.005 -0.14142,0.009 0.005,-0.10411 0.007,-0.20849 0.0145,-0.31167 -0.0585,-0.0226 -0.11567,-0.0454 -0.17364,-0.0698 0.0501,-0.0606 0.0994,-0.12243 0.14931,-0.18347 -0.0959,-0.22916 -0.17696,-0.42224 -0.27428,-0.64376 0.0611,0.13211 0.21824,0.47356 0.29204,0.63258 0.0807,-0.0988 0.16208,-0.19662 0.24205,-0.29657 0.0593,0.0944 0.12306,0.2024 0.18416,0.31892 4.67394,-8.65733 6.47811,-18.70484 4.962,-28.5473 z m -5.38821,28.52495 c -0.005,0.005 -0.0136,0.005 -0.0178,0.0106 0.0678,0.16192 0.13844,0.31961 0.19732,0.46884 0.007,-0.0138 0.0188,-0.0251 0.0264,-0.0388 -0.0577,-0.12394 -0.15448,-0.32903 -0.20589,-0.43991 z M 87.158791,268.9147 c -0.134076,-0.15035 -0.291365,-0.30685 -0.438056,-0.46359 -0.08556,-0.0128 -0.17524,-0.0202 -0.261122,-0.0315 -0.09921,0.0538 -0.202405,0.0971 -0.301901,0.14993 0.232692,0.2456 0.52142,0.51522 0.911627,0.82196 0.141919,0.11166 0.160888,-0.18824 0.08946,-0.47674 z m -86.96173937,-43.06393 -6.566e-4,6.7e-4 c -0.2580967,3.35777 -0.2642628,6.75023 -0.004,10.13519 0.6357412,-0.075 1.26845587,-0.11936 1.88705557,-0.0565 -0.1545137,0.73187 -0.3844509,1.45988 -0.4952791,2.19302 -0.3364526,0.0842 -0.72059287,0.16093 -1.16091087,0.22029 0.99213737,8.75735 3.75074137,17.45777 8.43814377,25.57441 3.7818446,6.54837 8.5253896,12.20408 13.9375026,16.89704 0.236562,-0.56718 0.485625,-1.12484 0.608408,-1.72417 0.06176,-0.30139 0.02669,-0.61476 -0.04012,-0.91205 0.38061,0.20416 0.77585,0.39758 1.166833,0.58985 -5.176043,-4.49802 -9.716053,-9.9217 -13.339621,-16.19738 -4.598832,-7.96245 -7.273918,-16.50769 -8.1730734,-25.09636 -0.2728625,0.24866 -0.684142,0.43664 -1.2372087,0.59313 0.2274766,-0.64538 0.4669325,-1.34154 0.7011507,-2.06938 0.1386253,0.0259 0.2790627,0.0485 0.4150333,0.088 -0.2465634,-2.98886 -0.274783,-5.97545 -0.098658,-8.94564 -0.2050573,-0.16231 -0.4492872,-0.28428 -0.7333794,-0.3656 -0.4293731,-0.12296 -0.8827813,-0.24327 -1.35165537,-0.36237 -0.1727532,-0.18692 -0.3455771,-0.37719 -0.5196142,-0.56222 z M 22.189895,236.97958 c -0.343599,0.009 -0.68566,0.0143 -1.026733,0.0106 0.03213,0.23691 0.05811,0.47415 0.09406,0.71083 0.854435,0.6871 0.977768,0.61337 0.932676,-0.72003 z m 1.972561,1.72086 c -0.02614,0.10176 -0.05365,0.20611 -0.07564,0.31103 -0.59873,0.34288 -1.423479,0.83408 -2.336948,1.36119 0.232672,1.08626 0.501331,2.17017 0.816912,3.2458 0.806782,-0.53429 1.594902,-1.03318 2.37444,-1.52822 -0.307304,-1.12248 -0.566469,-2.25671 -0.778764,-3.3898 z m -3.366311,2.20816 c -0.20223,0.11329 -0.409581,0.23094 -0.615646,0.34389 0.257434,1.1363 0.555816,2.26666 0.901103,3.39112 0.190402,-0.13893 0.385865,-0.27191 0.57947,-0.40704 -0.333502,-1.10415 -0.617138,-2.21253 -0.864927,-3.32797 z m 97.988755,2.82822 c -0.18328,0.005 -0.36804,0.0471 -0.54527,0.12823 -0.0886,0.0406 -0.17027,0.0866 -0.246,0.14203 -0.53009,0.38742 -0.73721,1.09938 -0.45318,1.71956 0.32461,0.70869 1.16698,1.02743 1.87587,0.70294 0.70891,-0.32453 1.01852,-1.1621 0.69392,-1.87079 -0.24345,-0.53157 -0.7755,-0.83861 -1.32534,-0.82197 z m -92.713027,1.88592 c -0.08245,0.1513 -0.156271,0.30397 -0.217054,0.46557 -0.132553,0.35232 -0.2101,0.72587 -0.263753,1.1001 -0.462173,0.25193 -0.961467,0.51964 -1.489781,0.78714 0.773745,1.89502 1.672904,3.76103 2.725017,5.58281 1.544057,2.67369 3.325817,5.12581 5.293488,7.35564 -0.06964,-1.05937 -0.04786,-1.91127 0.06249,-2.64807 0.04261,-0.0379 0.08754,-0.0733 0.130232,-0.11105 0.335264,-0.009 0.645987,-0.0162 0.97477,-0.0165 -1.512368,-1.82697 -2.892054,-3.80952 -4.118107,-5.93263 -1.235885,-2.1401 -2.267479,-4.34172 -3.097298,-6.58298 z m -2.909839,2.80981 c -0.205907,0.10153 -0.399646,0.20073 -0.604462,0.30051 0.793244,1.92714 1.721888,3.82243 2.792764,5.67686 2.109073,3.65228 4.637778,6.91239 7.483759,9.76104 -0.08128,-0.2097 -0.157544,-0.4208 -0.231525,-0.63193 0.138808,-0.0282 0.280107,-0.0698 0.417667,-0.11962 -2.691209,-2.74136 -5.085561,-5.86027 -7.095698,-9.34085 -1.064238,-1.84288 -1.976265,-3.73059 -2.762505,-5.64594 z m 81.197306,3.2984 c -0.0364,0.0505 -0.0596,0.092 -0.0684,0.11247 0.0118,-0.0167 0.0368,-0.0503 0.0684,-0.11247 z M 8.6536104,255.1293 c 8.84e-4,6.6e-4 0.0018,0.001 0.0027,0.002 -2.69e-4,-6.3e-4 -3.9e-4,-0.001 -6.58e-4,-0.002 z m 0.0027,0.002 c 0.995077,2.34834 2.1344376,4.66233 3.4426096,6.92756 10.466587,18.12441 28.663764,29.01444 48.022235,30.91129 6.7e-4,-0.17699 -0.0029,-0.32382 -0.0013,-0.48595 0.384887,-0.0234 1.000216,-0.0592 1.29246,-0.0777 -0.430654,-0.0335 -0.859599,-0.064 -1.289173,-0.10647 -19.12947,-1.89094 -37.098068,-12.66191 -47.443422,-30.57726 -1.120173,-1.93972 -2.11668,-3.91693 -3.0045536,-5.91948 -0.345845,-0.19176 -0.686554,-0.42576 -1.018839,-0.67205 z m 97.0251596,0.11189 c -1.87012,3.03642 -4.10933,5.87755 -6.68725,8.45247 0.3466,-0.0315 0.70736,-0.0777 1.08527,-0.14073 2.14053,-2.21973 4.0363,-4.62716 5.67498,-7.1748 -0.0246,-0.37929 -0.0479,-0.75771 -0.0724,-1.13694 z m -86.915045,1.34802 c -0.285817,0.005 -0.561507,0.0978 -0.791918,0.26237 -0.221195,0.15812 -0.39666,0.37838 -0.498565,0.65232 -0.271738,0.73063 0.09993,1.54522 0.830724,1.81687 0.730775,0.27169 1.544944,-0.0999 1.816677,-0.83051 0.271748,-0.73062 -0.108508,-1.53991 -0.839276,-1.81161 -0.171282,-0.0637 -0.346149,-0.0924 -0.517642,-0.0894 z m 15.57199,2.75919 c 0.04886,0.33796 0.09693,0.68167 0.165092,1.02252 -0.227272,0.21777 -0.484824,0.42178 -0.696548,0.6451 -0.270258,0.28504 -0.527273,0.58777 -0.79126,0.8818 0.316162,0.33769 0.631244,0.67701 0.956355,1.00346 0.325805,-0.22663 0.648063,-0.50314 0.955696,-0.80684 0.230615,0.84781 0.480749,1.66018 0.738641,2.41592 2.079882,1.88254 4.320096,3.54628 6.674742,4.99232 0.04304,-0.0106 0.08721,-0.0167 0.130234,-0.0269 -0.02296,0.0231 -0.04856,0.0435 -0.0717,0.0658 0.29471,0.18037 0.582997,0.36319 0.881371,0.53658 -0.184387,-0.23234 -0.315168,-0.4751 -0.367677,-0.69965 0.709963,-0.14096 1.414386,-0.21949 2.125159,-0.25448 0.774115,1.5302 0.721595,1.15816 0.946485,-0.0236 0.102941,-3.5e-4 0.20355,0.004 0.306508,0.005 -0.06451,0.6383 -0.220129,1.25552 -0.521589,1.83202 -0.08405,0.16076 -0.211681,0.24735 -0.36965,0.28603 2.087119,1.06934 4.244375,1.97516 6.462294,2.70923 0.02286,-0.0167 0.0441,-0.0343 0.06709,-0.0506 0.202819,-0.0807 0.397068,-0.16314 0.584072,-0.25186 -0.05757,0.0751 -0.102907,0.12444 -0.162462,0.20253 -0.0522,0.0685 -0.09327,0.14579 -0.142729,0.21635 5.391908,1.73702 11.097058,2.46188 16.80788,2.10687 0.492719,-1.32016 1.115147,-2.18669 1.889028,-2.85191 -2.653552,0.2964 -5.316615,0.34149 -7.9501,0.14204 0.677297,0.29741 1.177636,0.55 1.520697,0.82327 -0.842378,-0.002 -1.687266,-0.075 -2.461921,-0.0127 0.192457,-0.22841 0.360383,-0.40785 0.491989,-0.51488 0.134901,-0.10964 0.278703,-0.20467 0.425559,-0.29459 -10.795604,-0.82364 -21.125549,-5.74376 -28.593262,-14.09843 z m 72.281645,4.26174 -0.13616,0.16373 c 0.0545,-0.0313 0.14515,-0.084 0.20061,-0.11565 z m -71.306875,1.98982 c -0.207634,0.11188 -0.386321,0.24733 -0.526849,0.41361 4.506559,4.0196 9.690591,7.07851 15.242457,9.0969 0,0 6.61e-4,0 6.61e-4,0 0.24401,-0.14164 0.480486,-0.28742 0.718251,-0.4386 -5.621244,-1.97307 -10.87881,-5.02874 -15.433865,-9.07191 z m 14.716269,9.51051 c 12.059668,4.38431 25.817688,3.85139 37.959474,-2.50866 0.05099,-0.0737 0.100553,-0.14713 0.15128,-0.22028 0.01399,0.0381 0.02193,0.0871 0.02697,0.12954 0.357709,-0.18932 0.717995,-0.38376 1.072775,-0.58326 -0.08149,-0.19262 -0.182802,-0.39259 -0.299929,-0.60366 -0.01836,0.0106 -0.03691,0.0213 -0.05525,0.0315 -0.243975,0.33152 -0.498689,0.67025 -0.74456,1.02449 -0.05349,-0.14408 -0.174086,-0.25788 -0.382148,-0.32549 -0.04004,-0.0129 -0.07516,-0.0179 -0.115097,-0.031 -11.503138,6.01207 -24.473449,6.73193 -36.009932,2.93871 -0.0025,0.004 -0.0018,0.0106 -0.004,0.0145 -0.320452,-0.0426 -0.642263,-0.0515 -0.972795,-0.0218 -0.20251,0.0182 -0.418202,0.0755 -0.626826,0.15517 z m 46.574548,-9.18501 c -1.31991,1.1435 -2.71535,2.22454 -4.185856,3.23067 0.08996,0.23425 0.183802,0.44741 0.269016,0.6339 1.46663,-0.99744 2.85857,-2.0689 4.17862,-3.20109 -0.0754,-0.22699 -0.16278,-0.44901 -0.26178,-0.66348 z m -25.437306,9.76069 c -0.0078,0.0956 -0.0049,0.19332 0.0079,0.28736 0.04861,-0.005 0.09611,-0.0175 0.144704,-0.0231 -0.04859,-0.0847 -0.106095,-0.18331 -0.152598,-0.26434 z m 22.095456,1.11394 c -0.285825,0.005 -0.561493,0.0978 -0.791923,0.26235 -0.221193,0.15813 -0.396663,0.37834 -0.498567,0.65233 -0.27174,0.7306 0.09993,1.54522 0.830727,1.81687 0.730813,0.27169 1.540303,-0.10918 1.812073,-0.83971 0.27175,-0.73061 -0.10388,-1.53075 -0.83467,-1.80242 -0.17128,-0.0637 -0.34615,-0.0924 -0.51764,-0.0894 z m -41.446815,5.31188 c -0.18328,0.005 -0.368695,0.0471 -0.545923,0.12824 -0.08862,0.0406 -0.170261,0.0867 -0.245995,0.14203 -0.530099,0.38742 -0.731947,1.10796 -0.447921,1.72811 0.324591,0.70872 1.152519,1.02351 1.861405,0.69899 0.708919,-0.32451 1.027728,-1.16669 0.703124,-1.87541 -0.243449,-0.53152 -0.774851,-0.83857 -1.32469,-0.82196 z m 22.594673,9.9307 c -0.0025,-6.8e-4 -0.0067,0.006 -0.0092,0.005 -4.219301,0.56823 -8.461543,0.69425 -12.654914,0.39192 -0.234914,0.0375 -0.437562,0.0843 -0.520272,0.1302 -0.194817,0.10823 0.30216,0.23734 2.270518,0.35444 -0.0084,0.0933 -0.01393,0.18604 -0.02105,0.27945 4.308543,0.18795 8.660628,-0.0625 12.975233,-0.78381 -0.607823,-0.0127 -1.331864,-0.15915 -2.040312,-0.3768 z"
         style="color:#000000;text-indent:0;text-transform:none;fill:#d40000;stroke-width:0.33672053" />
      <text
         transform="rotate(-13.835719)"
         id="text1338"
         y="236.93958"
         x="-26.495361"
         style="font-style:normal;font-variant:normal;font-weight:normal;font-stretch:normal;font-size:21.4305439px;line-height:21.50020981px;font-family:Righteous;-inkscape-font-specification:'Righteous, Normal';font-variant-ligatures:normal;font-variant-caps:normal;font-variant-numeric:normal;font-feature-settings:normal;text-align:start;letter-spacing:0px;word-spacing:0px;writing-mode:lr-tb;text-anchor:start;fill:#d40000;fill-opacity:1;stroke:none;stroke-width:0.86000848px;stroke-linecap:butt;stroke-linejoin:miter;stroke-opacity:1;"
         xml:space="preserve"><tspan
           style="font-style:normal;font-variant:normal;font-weight:normal;font-stretch:normal;font-size:21.4305439px;font-family:Righteous;-inkscape-font-specification:'Righteous, Normal';font-variant-ligatures:normal;font-variant-caps:normal;font-variant-numeric:normal;font-feature-settings:normal;text-align:start;writing-mode:lr-tb;text-anchor:start;stroke-width:0.86000848px;fill:#d40000;fill-opacity:1;"
           y="236.93958"
           x="-26.495361"
           id="tspan1336"
           sodipodi:role="line">STATIC</tspan></text>
      <text
         transform="rotate(-13.835719)"
         id="text1338-1"
         y="255.58685"
         x="-32.480236"
         style="font-style:normal;font-variant:normal;font-weight:normal;font-stretch:normal;font-size:25.38743401px;line-height:37.99898911px;font-family:Righteous;-inkscape-font-specification:'Righteous, Normal';font-variant-ligatures:normal;font-variant-caps:normal;font-variant-numeric:normal;font-feature-settings:normal;text-align:start;letter-spacing:0px;word-spacing:0px;writing-mode:lr-tb;text-anchor:start;fill:#d40000;fill-opacity:1;stroke:none;stroke-width:1.51995945px;stroke-linecap:butt;stroke-linejoin:miter;stroke-opacity:1;"
         xml:space="preserve"><tspan
           style="font-style:normal;font-variant:normal;font-weight:normal;font-stretch:normal;font-size:25.38743401px;font-family:Righteous;-inkscape-font-specification:'Righteous, Normal';font-variant-ligatures:normal;font-variant-caps:normal;font-variant-numeric:normal;font-feature-settings:normal;text-align:start;writing-mode:lr-tb;text-anchor:start;stroke-width:1.51995945px;fill:#d40000;fill-opacity:1;"
           y="255.58685"
           x="-32.480236"
           id="tspan1336-6"
           sodipodi:role="line">CACHE</tspan></text>
      <text
         id="text18"
         style="font-style:normal;font-variant:normal;font-weight:normal;font-stretch:normal;font-size:4.94450712px;line-height:4.96058035px;font-family:Righteous;-inkscape-font-specification:'Righteous, Normal';font-variant-ligatures:normal;font-variant-position:normal;font-variant-caps:normal;font-variant-numeric:normal;font-variant-alternates:normal;font-feature-settings:normal;text-indent:0;text-align:start;text-decoration:none;text-decoration-line:none;text-decoration-style:solid;text-decoration-color:#000000;letter-spacing:0px;word-spacing:0px;text-transform:none;writing-mode:lr-tb;direction:ltr;text-orientation:mixed;dominant-baseline:auto;baseline-shift:baseline;text-anchor:start;white-space:normal;shape-padding:0;opacity:1;vector-effect:none;fill:#d40000;fill-opacity:1;stroke:none;stroke-width:0.19842325px;stroke-linecap:butt;stroke-linejoin:miter;stroke-miterlimit:4;stroke-dasharray:none;stroke-dashoffset:0;stroke-opacity:1"
         xml:space="preserve"><textPath
           id="textPath49"
           xlink:href="#path36"><tspan
   id="tspan16"
   style="font-style:normal;font-variant:normal;font-weight:normal;font-stretch:normal;font-size:4.94450712px;line-height:4.96058035px;font-family:Righteous;-inkscape-font-specification:'Righteous, Normal';font-variant-ligatures:normal;font-variant-position:normal;font-variant-caps:normal;font-variant-numeric:normal;font-variant-alternates:normal;font-feature-settings:normal;text-indent:0;text-align:start;text-decoration:none;text-decoration-line:none;text-decoration-style:solid;text-decoration-color:#000000;letter-spacing:0px;word-spacing:0px;text-transform:none;writing-mode:lr-tb;direction:ltr;text-orientation:mixed;dominant-baseline:auto;baseline-shift:baseline;text-anchor:start;white-space:normal;shape-padding:0;vector-effect:none;fill:#d40000;fill-opacity:1;stroke:none;stroke-width:0.19842325px;stroke-linecap:butt;stroke-linejoin:miter;stroke-miterlimit:4;stroke-dasharray:none;stroke-dashoffset:0;stroke-opacity:1">static cache</tspan></textPath></text>
      <circle
         transform="rotate(21.794178)"
         r="54.714611"
         cy="189.4819"
         cx="147.27147"
         id="path36"
         style="color:#000000;clip-rule:nonzero;display:inline;overflow:visible;visibility:visible;opacity:1;isolation:auto;mix-blend-mode:normal;color-interpolation:sRGB;color-interpolation-filters:linearRGB;solid-color:#000000;solid-opacity:1;vector-effect:none;fill:none;fill-opacity:1;fill-rule:nonzero;stroke:none;stroke-width:0.86000848px;stroke-linecap:butt;stroke-linejoin:miter;stroke-miterlimit:4;stroke-dasharray:none;stroke-dashoffset:0;stroke-opacity:1;marker:none;color-rendering:auto;image-rendering:auto;shape-rendering:auto;text-rendering:auto;enable-background:accumulate" />
      <text
         id="text18-3"
         style="font-style:normal;font-variant:normal;font-weight:normal;font-stretch:normal;font-size:4.94450712px;line-height:4.96058035px;font-family:Righteous;-inkscape-font-specification:'Righteous, Normal';font-variant-ligatures:normal;font-variant-position:normal;font-variant-caps:normal;font-variant-numeric:normal;font-variant-alternates:normal;font-feature-settings:normal;text-indent:0;text-align:start;text-decoration:none;text-decoration-line:none;text-decoration-style:solid;text-decoration-color:#000000;letter-spacing:0px;word-spacing:0px;text-transform:none;writing-mode:lr-tb;direction:ltr;text-orientation:mixed;dominant-baseline:auto;baseline-shift:baseline;text-anchor:start;white-space:normal;shape-padding:0;opacity:1;vector-effect:none;fill:#d40000;fill-opacity:1;stroke:none;stroke-width:0.19842325px;stroke-linecap:butt;stroke-linejoin:miter;stroke-miterlimit:4;stroke-dasharray:none;stroke-dashoffset:0;stroke-opacity:1"
         xml:space="preserve"><textPath
           id="textPath250"
           xlink:href="#circle248"><tspan
   id="tspan16-0"
   style="font-style:normal;font-variant:normal;font-weight:normal;font-stretch:normal;font-size:4.94450712px;line-height:4.96058035px;font-family:Righteous;-inkscape-font-specification:'Righteous, Normal';font-variant-ligatures:normal;font-variant-position:normal;font-variant-caps:normal;font-variant-numeric:normal;font-variant-alternates:normal;font-feature-settings:normal;text-indent:0;text-align:start;text-decoration:none;text-decoration-line:none;text-decoration-style:solid;text-decoration-color:#000000;letter-spacing:0px;word-spacing:0px;text-transform:none;writing-mode:lr-tb;direction:ltr;text-orientation:mixed;dominant-baseline:auto;baseline-shift:baseline;text-anchor:start;white-space:normal;shape-padding:0;vector-effect:none;fill:#d40000;fill-opacity:1;stroke:none;stroke-width:0.19842325px;stroke-linecap:butt;stroke-linejoin:miter;stroke-miterlimit:4;stroke-dasharray:none;stroke-dashoffset:0;stroke-opacity:1">static cache</tspan></textPath></text>
      <text
         id="text18-3-4"
         style="font-style:normal;font-variant:normal;font-weight:normal;font-stretch:normal;font-size:4.94450712px;line-height:4.96058035px;font-family:Righteous;-inkscape-font-specification:'Righteous, Normal';font-variant-ligatures:normal;font-variant-position:normal;font-variant-caps:normal;font-variant-numeric:normal;font-variant-alternates:normal;font-feature-settings:normal;text-indent:0;text-align:start;text-decoration:none;text-decoration-line:none;text-decoration-style:solid;text-decoration-color:#000000;letter-spacing:0px;word-spacing:0px;text-transform:none;writing-mode:lr-tb;direction:ltr;text-orientation:mixed;dominant-baseline:auto;baseline-shift:baseline;text-anchor:start;white-space:normal;shape-padding:0;opacity:1;vector-effect:none;fill:#d40000;fill-opacity:1;stroke:none;stroke-width:0.19842327px;stroke-linecap:butt;stroke-linejoin:miter;stroke-miterlimit:4;stroke-dasharray:none;stroke-dashoffset:0;stroke-opacity:1"
         xml:space="preserve"><textPath
           id="textPath235"
           xlink:href="#circle233"><tspan
   id="tspan16-0-9"
   style="font-style:normal;font-variant:normal;font-weight:normal;font-stretch:normal;font-size:4.94450712px;line-height:4.96058035px;font-family:Righteous;-inkscape-font-specification:'Righteous, Normal';font-variant-ligatures:normal;font-variant-position:normal;font-variant-caps:normal;font-variant-numeric:normal;font-variant-alternates:normal;font-feature-settings:normal;text-indent:0;text-align:start;text-decoration:none;text-decoration-line:none;text-decoration-style:solid;text-decoration-color:#000000;letter-spacing:0px;word-spacing:0px;text-transform:none;writing-mode:lr-tb;direction:ltr;text-orientation:mixed;dominant-baseline:auto;baseline-shift:baseline;text-anchor:start;white-space:normal;shape-padding:0;vector-effect:none;fill:#d40000;fill-opacity:1;stroke:none;stroke-width:0.19842327px;stroke-linecap:butt;stroke-linejoin:miter;stroke-miterlimit:4;stroke-dasharray:none;stroke-dashoffset:0;stroke-opacity:1">static cache</tspan></textPath></text>
      <text
         id="text18-3-9"
         style="font-style:normal;font-variant:normal;font-weight:normal;font-stretch:normal;font-size:4.94450712px;line-height:4.96058035px;font-family:Righteous;-inkscape-font-specification:'Righteous, Normal';font-variant-ligatures:normal;font-variant-position:normal;font-variant-caps:normal;font-variant-numeric:normal;font-variant-alternates:normal;font-feature-settings:normal;text-indent:0;text-align:start;text-decoration:none;text-decoration-line:none;text-decoration-style:solid;text-decoration-color:#000000;letter-spacing:0px;word-spacing:0px;text-transform:none;writing-mode:lr-tb;direction:ltr;text-orientation:mixed;dominant-baseline:auto;baseline-shift:baseline;text-anchor:start;white-space:normal;shape-padding:0;opacity:1;vector-effect:none;fill:#d40000;fill-opacity:1;stroke:none;stroke-width:0.19842327px;stroke-linecap:butt;stroke-linejoin:miter;stroke-miterlimit:4;stroke-dasharray:none;stroke-dashoffset:0;stroke-opacity:1"
         xml:space="preserve"><textPath
           id="textPath220"
           xlink:href="#circle218"><tspan
   id="tspan16-0-6"
   style="font-style:normal;font-variant:normal;font-weight:normal;font-stretch:normal;font-size:4.94450712px;line-height:4.96058035px;font-family:Righteous;-inkscape-font-specification:'Righteous, Normal';font-variant-ligatures:normal;font-variant-position:normal;font-variant-caps:normal;font-variant-numeric:normal;font-variant-alternates:normal;font-feature-settings:normal;text-indent:0;text-align:start;text-decoration:none;text-decoration-line:none;text-decoration-style:solid;text-decoration-color:#000000;letter-spacing:0px;word-spacing:0px;text-transform:none;writing-mode:lr-tb;direction:ltr;text-orientation:mixed;dominant-baseline:auto;baseline-shift:baseline;text-anchor:start;white-space:normal;shape-padding:0;vector-effect:none;fill:#d40000;fill-opacity:1;stroke:none;stroke-width:0.19842327px;stroke-linecap:butt;stroke-linejoin:miter;stroke-miterlimit:4;stroke-dasharray:none;stroke-dashoffset:0;stroke-opacity:1">static cache</tspan></textPath></text>
      <text
         id="text18-3-1"
         style="font-style:normal;font-variant:normal;font-weight:normal;font-stretch:normal;font-size:4.94450712px;line-height:4.96058035px;font-family:Righteous;-inkscape-font-specification:'Righteous, Normal';font-variant-ligatures:normal;font-variant-position:normal;font-variant-caps:normal;font-variant-numeric:normal;font-variant-alternates:normal;font-feature-settings:normal;text-indent:0;text-align:start;text-decoration:none;text-decoration-line:none;text-decoration-style:solid;text-decoration-color:#000000;letter-spacing:0px;word-spacing:0px;text-transform:none;writing-mode:lr-tb;direction:ltr;text-orientation:mixed;dominant-baseline:auto;baseline-shift:baseline;text-anchor:start;white-space:normal;shape-padding:0;opacity:1;vector-effect:none;fill:#d40000;fill-opacity:1;stroke:none;stroke-width:0.19842327px;stroke-linecap:butt;stroke-linejoin:miter;stroke-miterlimit:4;stroke-dasharray:none;stroke-dashoffset:0;stroke-opacity:1"
         xml:space="preserve"><textPath
           id="textPath225"
           xlink:href="#circle223"><tspan
   id="tspan16-0-68"
   style="font-style:normal;font-variant:normal;font-weight:normal;font-stretch:normal;font-size:4.94450712px;line-height:4.96058035px;font-family:Righteous;-inkscape-font-specification:'Righteous, Normal';font-variant-ligatures:normal;font-variant-position:normal;font-variant-caps:normal;font-variant-numeric:normal;font-variant-alternates:normal;font-feature-settings:normal;text-indent:0;text-align:start;text-decoration:none;text-decoration-line:none;text-decoration-style:solid;text-decoration-color:#000000;letter-spacing:0px;word-spacing:0px;text-transform:none;writing-mode:lr-tb;direction:ltr;text-orientation:mixed;dominant-baseline:auto;baseline-shift:baseline;text-anchor:start;white-space:normal;shape-padding:0;vector-effect:none;fill:#d40000;fill-opacity:1;stroke:none;stroke-width:0.19842327px;stroke-linecap:butt;stroke-linejoin:miter;stroke-miterlimit:4;stroke-dasharray:none;stroke-dashoffset:0;stroke-opacity:1">static cache</tspan></textPath></text>
      <text
         id="text18-3-5"
         style="font-style:normal;font-variant:normal;font-weight:normal;font-stretch:normal;font-size:4.94450712px;line-height:4.96058035px;font-family:Righteous;-inkscape-font-specification:'Righteous, Normal';font-variant-ligatures:normal;font-variant-position:normal;font-variant-caps:normal;font-variant-numeric:normal;font-variant-alternates:normal;font-feature-settings:normal;text-indent:0;text-align:start;text-decoration:none;text-decoration-line:none;text-decoration-style:solid;text-decoration-color:#000000;letter-spacing:0px;word-spacing:0px;text-transform:none;writing-mode:lr-tb;direction:ltr;text-orientation:mixed;dominant-baseline:auto;baseline-shift:baseline;text-anchor:start;white-space:normal;shape-padding:0;opacity:1;vector-effect:none;fill:#d40000;fill-opacity:1;stroke:none;stroke-width:0.19842327px;stroke-linecap:butt;stroke-linejoin:miter;stroke-miterlimit:4;stroke-dasharray:none;stroke-dashoffset:0;stroke-opacity:1"
         xml:space="preserve"><textPath
           id="textPath245"
           xlink:href="#circle243"><tspan
   id="tspan16-0-8"
   style="font-style:normal;font-variant:normal;font-weight:normal;font-stretch:normal;font-size:4.94450712px;line-height:4.96058035px;font-family:Righteous;-inkscape-font-specification:'Righteous, Normal';font-variant-ligatures:normal;font-variant-position:normal;font-variant-caps:normal;font-variant-numeric:normal;font-variant-alternates:normal;font-feature-settings:normal;text-indent:0;text-align:start;text-decoration:none;text-decoration-line:none;text-decoration-style:solid;text-decoration-color:#000000;letter-spacing:0px;word-spacing:0px;text-transform:none;writing-mode:lr-tb;direction:ltr;text-orientation:mixed;dominant-baseline:auto;baseline-shift:baseline;text-anchor:start;white-space:normal;shape-padding:0;vector-effect:none;fill:#d40000;fill-opacity:1;stroke:none;stroke-width:0.19842327px;stroke-linecap:butt;stroke-linejoin:miter;stroke-miterlimit:4;stroke-dasharray:none;stroke-dashoffset:0;stroke-opacity:1">static cache</tspan></textPath></text>
      <text
         id="text18-3-47"
         style="font-style:normal;font-variant:normal;font-weight:normal;font-stretch:normal;font-size:4.94450712px;line-height:4.96058035px;font-family:Righteous;-inkscape-font-specification:'Righteous, Normal';font-variant-ligatures:normal;font-variant-position:normal;font-variant-caps:normal;font-variant-numeric:normal;font-variant-alternates:normal;font-feature-settings:normal;text-indent:0;text-align:start;text-decoration:none;text-decoration-line:none;text-decoration-style:solid;text-decoration-color:#000000;letter-spacing:0px;word-spacing:0px;text-transform:none;writing-mode:lr-tb;direction:ltr;text-orientation:mixed;dominant-baseline:auto;baseline-shift:baseline;text-anchor:start;white-space:normal;shape-padding:0;opacity:1;vector-effect:none;fill:#d40000;fill-opacity:1;stroke:none;stroke-width:0.19842327px;stroke-linecap:butt;stroke-linejoin:miter;stroke-miterlimit:4;stroke-dasharray:none;stroke-dashoffset:0;stroke-opacity:1"
         xml:space="preserve"><textPath
           id="textPath230"
           xlink:href="#circle228"><tspan
   id="tspan16-0-88"
   style="font-style:normal;font-variant:normal;font-weight:normal;font-stretch:normal;font-size:4.94450712px;line-height:4.96058035px;font-family:Righteous;-inkscape-font-specification:'Righteous, Normal';font-variant-ligatures:normal;font-variant-position:normal;font-variant-caps:normal;font-variant-numeric:normal;font-variant-alternates:normal;font-feature-settings:normal;text-indent:0;text-align:start;text-decoration:none;text-decoration-line:none;text-decoration-style:solid;text-decoration-color:#000000;letter-spacing:0px;word-spacing:0px;text-transform:none;writing-mode:lr-tb;direction:ltr;text-orientation:mixed;dominant-baseline:auto;baseline-shift:baseline;text-anchor:start;white-space:normal;shape-padding:0;vector-effect:none;fill:#d40000;fill-opacity:1;stroke:none;stroke-width:0.19842327px;stroke-linecap:butt;stroke-linejoin:miter;stroke-miterlimit:4;stroke-dasharray:none;stroke-dashoffset:0;stroke-opacity:1">static cache</tspan></textPath></text>
      <text
         id="text18-3-56"
         style="font-style:normal;font-variant:normal;font-weight:normal;font-stretch:normal;font-size:4.94450712px;line-height:4.96058035px;font-family:Righteous;-inkscape-font-specification:'Righteous, Normal';font-variant-ligatures:normal;font-variant-position:normal;font-variant-caps:normal;font-variant-numeric:normal;font-variant-alternates:normal;font-feature-settings:normal;text-indent:0;text-align:start;text-decoration:none;text-decoration-line:none;text-decoration-style:solid;text-decoration-color:#000000;letter-spacing:0px;word-spacing:0px;text-transform:none;writing-mode:lr-tb;direction:ltr;text-orientation:mixed;dominant-baseline:auto;baseline-shift:baseline;text-anchor:start;white-space:normal;shape-padding:0;opacity:1;vector-effect:none;fill:#d40000;fill-opacity:1;stroke:none;stroke-width:0.19842327px;stroke-linecap:butt;stroke-linejoin:miter;stroke-miterlimit:4;stroke-dasharray:none;stroke-dashoffset:0;stroke-opacity:1"
         xml:space="preserve"><textPath
           id="textPath240"
           xlink:href="#circle238"><tspan
   id="tspan16-0-86"
   style="font-style:normal;font-variant:normal;font-weight:normal;font-stretch:normal;font-size:4.94450712px;line-height:4.96058035px;font-family:Righteous;-inkscape-font-specification:'Righteous, Normal';font-variant-ligatures:normal;font-variant-position:normal;font-variant-caps:normal;font-variant-numeric:normal;font-variant-alternates:normal;font-feature-settings:normal;text-indent:0;text-align:start;text-decoration:none;text-decoration-line:none;text-decoration-style:solid;text-decoration-color:#000000;letter-spacing:0px;word-spacing:0px;text-transform:none;writing-mode:lr-tb;direction:ltr;text-orientation:mixed;dominant-baseline:auto;baseline-shift:baseline;text-anchor:start;white-space:normal;shape-padding:0;vector-effect:none;fill:#d40000;fill-opacity:1;stroke:none;stroke-width:0.19842327px;stroke-linecap:butt;stroke-linejoin:miter;stroke-miterlimit:4;stroke-dasharray:none;stroke-dashoffset:0;stroke-opacity:1">static cache</tspan></textPath></text>
      <circle
         style="color:#000000;clip-rule:nonzero;display:inline;overflow:visible;visibility:visible;opacity:1;isolation:auto;mix-blend-mode:normal;color-interpolation:sRGB;color-interpolation-filters:linearRGB;solid-color:#000000;solid-opacity:1;vector-effect:none;fill:none;fill-opacity:1;fill-rule:nonzero;stroke:none;stroke-width:0.86000848px;stroke-linecap:butt;stroke-linejoin:miter;stroke-miterlimit:4;stroke-dasharray:none;stroke-dashoffset:0;stroke-opacity:1;marker:none;color-rendering:auto;image-rendering:auto;shape-rendering:auto;text-rendering:auto;enable-background:accumulate"
         id="circle218"
         cx="238.77927"
         cy="24.931118"
         r="54.714611"
         transform="rotate(67.91333)" />
      <circle
         transform="rotate(112.63582)"
         r="54.714611"
         cy="-151.31084"
         cx="187.00742"
         id="circle223"
         style="color:#000000;clip-rule:nonzero;display:inline;overflow:visible;visibility:visible;opacity:1;isolation:auto;mix-blend-mode:normal;color-interpolation:sRGB;color-interpolation-filters:linearRGB;solid-color:#000000;solid-opacity:1;vector-effect:none;fill:none;fill-opacity:1;fill-rule:nonzero;stroke:none;stroke-width:0.86000848px;stroke-linecap:butt;stroke-linejoin:miter;stroke-miterlimit:4;stroke-dasharray:none;stroke-dashoffset:0;stroke-opacity:1;marker:none;color-rendering:auto;image-rendering:auto;shape-rendering:auto;text-rendering:auto;enable-background:accumulate" />
      <circle
         style="color:#000000;clip-rule:nonzero;display:inline;overflow:visible;visibility:visible;opacity:1;isolation:auto;mix-blend-mode:normal;color-interpolation:sRGB;color-interpolation-filters:linearRGB;solid-color:#000000;solid-opacity:1;vector-effect:none;fill:none;fill-opacity:1;fill-rule:nonzero;stroke:none;stroke-width:0.86000848px;stroke-linecap:butt;stroke-linejoin:miter;stroke-miterlimit:4;stroke-dasharray:none;stroke-dashoffset:0;stroke-opacity:1;marker:none;color-rendering:auto;image-rendering:auto;shape-rendering:auto;text-rendering:auto;enable-background:accumulate"
         id="circle228"
         cx="36.793434"
         cy="-238.00444"
         r="54.714611"
         transform="rotate(154.89376)" />
      <circle
         transform="rotate(-156.81665)"
         r="54.714611"
         cy="-186.8409"
         cx="-153.36919"
         id="circle233"
         style="color:#000000;clip-rule:nonzero;display:inline;overflow:visible;visibility:visible;opacity:1;isolation:auto;mix-blend-mode:normal;color-interpolation:sRGB;color-interpolation-filters:linearRGB;solid-color:#000000;solid-opacity:1;vector-effect:none;fill:none;fill-opacity:1;fill-rule:nonzero;stroke:none;stroke-width:0.86000848px;stroke-linecap:butt;stroke-linejoin:miter;stroke-miterlimit:4;stroke-dasharray:none;stroke-dashoffset:0;stroke-opacity:1;marker:none;color-rendering:auto;image-rendering:auto;shape-rendering:auto;text-rendering:auto;enable-background:accumulate" />
      <circle
         style="color:#000000;clip-rule:nonzero;display:inline;overflow:visible;visibility:visible;opacity:1;isolation:auto;mix-blend-mode:normal;color-interpolation:sRGB;color-interpolation-filters:linearRGB;solid-color:#000000;solid-opacity:1;vector-effect:none;fill:none;fill-opacity:1;fill-rule:nonzero;stroke:none;stroke-width:0.86000848px;stroke-linecap:butt;stroke-linejoin:miter;stroke-miterlimit:4;stroke-dasharray:none;stroke-dashoffset:0;stroke-opacity:1;marker:none;color-rendering:auto;image-rendering:auto;shape-rendering:auto;text-rendering:auto;enable-background:accumulate"
         id="circle238"
         cx="-238.90204"
         cy="-36.183918"
         r="54.714611"
         transform="rotate(-114.74019)" />
      <circle
         transform="rotate(-67.12773)"
         r="54.714611"
         cy="150.9791"
         cx="-188.04416"
         id="circle243"
         style="color:#000000;clip-rule:nonzero;display:inline;overflow:visible;visibility:visible;opacity:1;isolation:auto;mix-blend-mode:normal;color-interpolation:sRGB;color-interpolation-filters:linearRGB;solid-color:#000000;solid-opacity:1;vector-effect:none;fill:none;fill-opacity:1;fill-rule:nonzero;stroke:none;stroke-width:0.86000848px;stroke-linecap:butt;stroke-linejoin:miter;stroke-miterlimit:4;stroke-dasharray:none;stroke-dashoffset:0;stroke-opacity:1;marker:none;color-rendering:auto;image-rendering:auto;shape-rendering:auto;text-rendering:auto;enable-background:accumulate" />
      <circle
         style="color:#000000;clip-rule:nonzero;display:inline;overflow:visible;visibility:visible;opacity:1;isolation:auto;mix-blend-mode:normal;color-interpolation:sRGB;color-interpolation-filters:linearRGB;solid-color:#000000;solid-opacity:1;vector-effect:none;fill:none;fill-opacity:1;fill-rule:nonzero;stroke:none;stroke-width:0.86000848px;stroke-linecap:butt;stroke-linejoin:miter;stroke-miterlimit:4;stroke-dasharray:none;stroke-dashoffset:0;stroke-opacity:1;marker:none;color-rendering:auto;image-rendering:auto;shape-rendering:auto;text-rendering:auto;enable-background:accumulate"
         id="circle248"
         cx="-30.407995"
         cy="239.21381"
         r="54.714611"
         transform="rotate(-23.133898)" />
    </g>
  </g>
</svg>
